<svg xmlns="http://www.w3.org/2000/svg" xmlns:xlink="http://www.w3.org/1999/xlink" xmlns:lucid="lucid" width="1522" height="674"><g transform="translate(2101 481)" lucid:page-tab-id="0_0"><path d="M-2500-500h2000V500h-2000z" fill="#fff"/><path d="M-1500-380h360v198h-360z" stroke="#333" stroke-width="2" fill="#fff"/><path d="M-1500-337.33h360m-360 90.83h360" stroke="#333" stroke-width="2" fill="none"/><use xlink:href="#a" transform="matrix(1,0,0,1,-1492,-372) translate(112.83333333333333 17.944444444444443)"/><use xlink:href="#b" transform="matrix(1,0,0,1,-1488,-329.3333333333333) translate(0 28.611111111111114)"/><use xlink:href="#c" transform="matrix(1,0,0,1,-1488,-329.3333333333333) translate(13.518518518518519 28.611111111111114)"/><use xlink:href="#d" transform="matrix(1,0,0,1,-1488,-329.3333333333333) translate(189.81481481481478 28.611111111111114)"/><use xlink:href="#e" transform="matrix(1,0,0,1,-1488,-329.3333333333333) translate(202.16049382716045 28.611111111111114)"/><use xlink:href="#b" transform="matrix(1,0,0,1,-1488,-329.3333333333333) translate(0 55.27777777777778)"/><use xlink:href="#f" transform="matrix(1,0,0,1,-1488,-329.3333333333333) translate(13.518518518518519 55.27777777777778)"/><use xlink:href="#d" transform="matrix(1,0,0,1,-1488,-329.3333333333333) translate(112.16049382716048 55.27777777777778)"/><use xlink:href="#g" transform="matrix(1,0,0,1,-1488,-329.3333333333333) translate(124.50617283950616 55.27777777777778)"/><path d="M-2080-460h360v358h-360z" stroke="#333" stroke-width="2" fill="#fff"/><path d="M-2080-417.33h360m-360 250.83h360" stroke="#333" stroke-width="2" fill="none"/><use xlink:href="#h" transform="matrix(1,0,0,1,-2072,-452) translate(145.48765432098764 17.944444444444443)"/><use xlink:href="#b" transform="matrix(1,0,0,1,-2068,-409.3333333333333) translate(0 28.61111111111112)"/><use xlink:href="#i" transform="matrix(1,0,0,1,-2068,-409.3333333333333) translate(13.518518518518519 28.61111111111112)"/><use xlink:href="#d" transform="matrix(1,0,0,1,-2068,-409.3333333333333) translate(125.67901234567901 28.61111111111112)"/><use xlink:href="#e" transform="matrix(1,0,0,1,-2068,-409.3333333333333) translate(138.02469135802468 28.61111111111112)"/><use xlink:href="#b" transform="matrix(1,0,0,1,-2068,-409.3333333333333) translate(0 55.27777777777779)"/><use xlink:href="#j" transform="matrix(1,0,0,1,-2068,-409.3333333333333) translate(13.518518518518519 55.27777777777779)"/><use xlink:href="#d" transform="matrix(1,0,0,1,-2068,-409.3333333333333) translate(94.87654320987653 55.27777777777779)"/><use xlink:href="#k" transform="matrix(1,0,0,1,-2068,-409.3333333333333) translate(107.22222222222221 55.27777777777779)"/><use xlink:href="#b" transform="matrix(1,0,0,1,-2068,-409.3333333333333) translate(0 81.94444444444446)"/><use xlink:href="#l" transform="matrix(1,0,0,1,-2068,-409.3333333333333) translate(13.518518518518519 81.94444444444446)"/><use xlink:href="#d" transform="matrix(1,0,0,1,-2068,-409.3333333333333) translate(152.8395061728395 81.94444444444446)"/><use xlink:href="#e" transform="matrix(1,0,0,1,-2068,-409.3333333333333) translate(165.18518518518516 81.94444444444446)"/><use xlink:href="#b" transform="matrix(1,0,0,1,-2068,-409.3333333333333) translate(0 108.61111111111111)"/><use xlink:href="#m" transform="matrix(1,0,0,1,-2068,-409.3333333333333) translate(13.518518518518519 108.61111111111111)"/><use xlink:href="#d" transform="matrix(1,0,0,1,-2068,-409.3333333333333) translate(76.29629629629629 108.61111111111111)"/><use xlink:href="#e" transform="matrix(1,0,0,1,-2068,-409.3333333333333) translate(88.64197530864197 108.61111111111111)"/><use xlink:href="#b" transform="matrix(1,0,0,1,-2068,-409.3333333333333) translate(0 135.2777777777778)"/><use xlink:href="#n" transform="matrix(1,0,0,1,-2068,-409.3333333333333) translate(13.518518518518519 135.2777777777778)"/><use xlink:href="#d" transform="matrix(1,0,0,1,-2068,-409.3333333333333) translate(85.06172839506172 135.2777777777778)"/><use xlink:href="#e" transform="matrix(1,0,0,1,-2068,-409.3333333333333) translate(97.4074074074074 135.2777777777778)"/><use xlink:href="#b" transform="matrix(1,0,0,1,-2068,-409.3333333333333) translate(0 161.94444444444446)"/><use xlink:href="#o" transform="matrix(1,0,0,1,-2068,-409.3333333333333) translate(13.518518518518519 161.94444444444446)"/><use xlink:href="#d" transform="matrix(1,0,0,1,-2068,-409.3333333333333) translate(86.35802469135803 161.94444444444446)"/><use xlink:href="#e" transform="matrix(1,0,0,1,-2068,-409.3333333333333) translate(98.70370370370371 161.94444444444446)"/><use xlink:href="#b" transform="matrix(1,0,0,1,-2068,-409.3333333333333) translate(0 188.61111111111111)"/><use xlink:href="#p" transform="matrix(1,0,0,1,-2068,-409.3333333333333) translate(13.518518518518519 188.61111111111111)"/><use xlink:href="#d" transform="matrix(1,0,0,1,-2068,-409.3333333333333) translate(55.49382716049383 188.61111111111111)"/><use xlink:href="#e" transform="matrix(1,0,0,1,-2068,-409.3333333333333) translate(67.8395061728395 188.61111111111111)"/><use xlink:href="#b" transform="matrix(1,0,0,1,-2068,-409.3333333333333) translate(0 215.27777777777777)"/><use xlink:href="#q" transform="matrix(1,0,0,1,-2068,-409.3333333333333) translate(13.518518518518519 215.27777777777777)"/><use xlink:href="#d" transform="matrix(1,0,0,1,-2068,-409.3333333333333) translate(88.76543209876543 215.27777777777777)"/><use xlink:href="#r" transform="matrix(1,0,0,1,-2068,-409.3333333333333) translate(101.11111111111111 215.27777777777777)"/><path d="M-1500 1h360v171h-360z" stroke="#333" stroke-width="2" fill="#fff"/><path d="M-1500 43.67h360m-360 64.16h360" stroke="#333" stroke-width="2" fill="none"/><g><use xlink:href="#s" transform="matrix(1,0,0,1,-1492,9.000000000000028) translate(122.06172839506172 17.944444444444443)"/></g><path d="M-960 1h360v171h-360z" stroke="#333" stroke-width="2" fill="#fff"/><path d="M-960 43.67h360m-360 64.16h360" stroke="#333" stroke-width="2" fill="none"/><g><use xlink:href="#t" transform="matrix(1,0,0,1,-952,9.000000000000028) translate(132.52469135802468 17.944444444444443)"/></g><g><use xlink:href="#b" transform="matrix(1,0,0,1,-948,51.6666666666667) translate(0 28.944444444444443)"/><use xlink:href="#u" transform="matrix(1,0,0,1,-948,51.6666666666667) translate(13.518518518518519 28.944444444444443)"/><use xlink:href="#d" transform="matrix(1,0,0,1,-948,51.6666666666667) translate(96.17283950617285 28.944444444444443)"/><use xlink:href="#v" transform="matrix(1,0,0,1,-948,51.6666666666667) translate(108.51851851851853 28.944444444444443)"/></g><path d="M-960-380h360v198h-360z" stroke="#333" stroke-width="2" fill="#fff"/><path d="M-960-337.33h360m-360 90.83h360" stroke="#333" stroke-width="2" fill="none"/><g><use xlink:href="#w" transform="matrix(1,0,0,1,-952,-372) translate(143.6358024691358 17.944444444444443)"/></g><g><use xlink:href="#b" transform="matrix(1,0,0,1,-948,-329.3333333333333) translate(0 28.611111111111114)"/><use xlink:href="#x" transform="matrix(1,0,0,1,-948,-329.3333333333333) translate(13.518518518518519 28.611111111111114)"/><use xlink:href="#d" transform="matrix(1,0,0,1,-948,-329.3333333333333) translate(75.18518518518519 28.611111111111114)"/><use xlink:href="#e" transform="matrix(1,0,0,1,-948,-329.3333333333333) translate(87.53086419753087 28.611111111111114)"/><use xlink:href="#b" transform="matrix(1,0,0,1,-948,-329.3333333333333) translate(0 55.27777777777778)"/><use xlink:href="#y" transform="matrix(1,0,0,1,-948,-329.3333333333333) translate(13.518518518518519 55.27777777777778)"/><use xlink:href="#z" transform="matrix(1,0,0,1,-948,-329.3333333333333) translate(66.54320987654322 55.27777777777778)"/></g><path d="M-780-1v-149.25" stroke="#5e5e5e" stroke-width="2" fill="none"/><path d="M-779.02 0H-781v-1.03h1.96z" stroke="#5e5e5e" stroke-width=".05" fill="#5e5e5e"/><path d="M-780-179.6l14.85 14.86L-780-149.6l-14.85-15.14z" stroke="#5e5e5e" stroke-width="2" fill="#fff"/><path d="M-1320-180V-1" stroke="#5e5e5e" stroke-width="2" fill="none"/><path d="M-1319.03-179.97h-1.94V-181h1.94zM-1319.03 0h-1.94v-1.03h1.94z" stroke="#5e5e5e" stroke-width=".05" fill="#5e5e5e"/><path d="M-1108.25 86.5H-962" stroke="#5e5e5e" stroke-width="2" fill="none"/><path d="M-1137.6 86.5l14.86-14.85 15.15 14.85-15.14 14.85z" stroke="#5e5e5e" stroke-width="2" fill="#5e5e5e"/><path d="M-961 87.47h-1.03v-1.94h1.03z" stroke="#5e5e5e" stroke-width=".05" fill="#5e5e5e"/><path d="M-962-281h-146.25" stroke="#5e5e5e" stroke-width="2" fill="none"/><path d="M-961-280.02h-1.03v-1.96h1.03z" stroke="#5e5e5e" stroke-width=".05" fill="#5e5e5e"/><path d="M-1137.6-281l14.86-14.85 15.15 14.85-15.14 14.85z" stroke="#5e5e5e" stroke-width="2" fill="#fff"/><path d="M-1502-281h-216" stroke="#5e5e5e" stroke-width="2" fill="none"/><path d="M-1501-280.02h-1.03v-1.96h1.03zM-1717.97-280.02h-1.03v-1.96h1.03z" stroke="#5e5e5e" stroke-width=".05" fill="#5e5e5e"/><defs><path fill="#282c33" d="M212-179c-10-28-35-45-73-45-59 0-87 40-87 99 0 60 29 101 89 101 43 0 62-24 78-52l27 14C228-24 195 4 139 4 59 4 22-46 18-125c-6-104 99-153 187-111 19 9 31 26 39 46" id="A"/><path fill="#282c33" d="M100-194c62-1 85 37 85 99 1 63-27 99-86 99S16-35 15-95c0-66 28-99 85-99zM99-20c44 1 53-31 53-75 0-43-8-75-51-75s-53 32-53 75 10 74 51 75" id="B"/><path fill="#282c33" d="M210-169c-67 3-38 105-44 169h-31v-121c0-29-5-50-35-48C34-165 62-65 56 0H25l-1-190h30c1 10-1 24 2 32 10-44 99-50 107 0 11-21 27-35 58-36 85-2 47 119 55 194h-31v-121c0-29-5-49-35-48" id="C"/><path fill="#282c33" d="M115-194c55 1 70 41 70 98S169 2 115 4C84 4 66-9 55-30l1 105H24l-1-265h31l2 30c10-21 28-34 59-34zm-8 174c40 0 45-34 45-75s-6-73-45-74c-42 0-51 32-51 76 0 43 10 73 51 73" id="D"/><path fill="#282c33" d="M100-194c63 0 86 42 84 106H49c0 40 14 67 53 68 26 1 43-12 49-29l28 8c-11 28-37 45-77 45C44 4 14-33 15-96c1-61 26-98 85-98zm52 81c6-60-76-77-97-28-3 7-6 17-6 28h103" id="E"/><path fill="#282c33" d="M59-47c-2 24 18 29 38 22v24C64 9 27 4 27-40v-127H5v-23h24l9-43h21v43h35v23H59v120" id="F"/><path fill="#282c33" d="M24-231v-30h32v30H24zM24 0v-190h32V0H24" id="G"/><path fill="#282c33" d="M96-169c-40 0-48 33-48 73s9 75 48 75c24 0 41-14 43-38l32 2c-6 37-31 61-74 61-59 0-76-41-82-99-10-93 101-131 147-64 4 7 5 14 7 22l-32 3c-4-21-16-35-41-35" id="H"/><path fill="#282c33" d="M141-36C126-15 110 5 73 4 37 3 15-17 15-53c-1-64 63-63 125-63 3-35-9-54-41-54-24 1-41 7-42 31l-33-3c5-37 33-52 76-52 45 0 72 20 72 64v82c-1 20 7 32 28 27v20c-31 9-61-2-59-35zM48-53c0 20 12 33 32 33 41-3 63-29 60-74-43 2-92-5-92 41" id="I"/><g id="a"><use transform="matrix(0.06172839506172839,0,0,0.06172839506172839,0,0)" xlink:href="#A"/><use transform="matrix(0.06172839506172839,0,0,0.06172839506172839,15.987654320987653,0)" xlink:href="#B"/><use transform="matrix(0.06172839506172839,0,0,0.06172839506172839,28.333333333333332,0)" xlink:href="#C"/><use transform="matrix(0.06172839506172839,0,0,0.06172839506172839,46.79012345679012,0)" xlink:href="#D"/><use transform="matrix(0.06172839506172839,0,0,0.06172839506172839,59.1358024691358,0)" xlink:href="#E"/><use transform="matrix(0.06172839506172839,0,0,0.06172839506172839,71.48148148148148,0)" xlink:href="#F"/><use transform="matrix(0.06172839506172839,0,0,0.06172839506172839,77.65432098765432,0)" xlink:href="#G"/><use transform="matrix(0.06172839506172839,0,0,0.06172839506172839,82.53086419753086,0)" xlink:href="#H"/><use transform="matrix(0.06172839506172839,0,0,0.06172839506172839,93.64197530864197,0)" xlink:href="#I"/><use transform="matrix(0.06172839506172839,0,0,0.06172839506172839,105.98765432098766,0)" xlink:href="#B"/></g><path fill="#282c33" d="M16-82v-28h88v28H16" id="J"/><use transform="matrix(0.06172839506172839,0,0,0.06172839506172839,0,0)" xlink:href="#J" id="b"/><path fill="#282c33" d="M117-194c89-4 53 116 60 194h-32v-121c0-31-8-49-39-48C34-167 62-67 57 0H25l-1-190h30c1 10-1 24 2 32 11-22 29-35 61-36" id="K"/><path fill="#282c33" d="M240 0l2-218c-23 76-54 145-80 218h-23L58-218 59 0H30v-248h44l77 211c21-75 51-140 76-211h43V0h-30" id="L"/><path fill="#282c33" d="M85-194c31 0 48 13 60 33l-1-100h32l1 261h-30c-2-10 0-23-3-31C134-8 116 4 85 4 32 4 16-35 15-94c0-66 23-100 70-100zm9 24c-40 0-46 34-46 75 0 40 6 74 45 74 42 0 51-32 51-76 0-42-9-74-50-73" id="M"/><path fill="#282c33" d="M24 0v-261h32V0H24" id="N"/><g id="c"><use transform="matrix(0.06172839506172839,0,0,0.06172839506172839,0,0)" xlink:href="#K"/><use transform="matrix(0.06172839506172839,0,0,0.06172839506172839,12.345679012345679,0)" xlink:href="#B"/><use transform="matrix(0.06172839506172839,0,0,0.06172839506172839,24.691358024691358,0)" xlink:href="#C"/><use transform="matrix(0.06172839506172839,0,0,0.06172839506172839,43.148148148148145,0)" xlink:href="#E"/><use transform="matrix(0.06172839506172839,0,0,0.06172839506172839,55.49382716049382,0)" xlink:href="#L"/><use transform="matrix(0.06172839506172839,0,0,0.06172839506172839,73.9506172839506,0)" xlink:href="#B"/><use transform="matrix(0.06172839506172839,0,0,0.06172839506172839,86.29629629629629,0)" xlink:href="#M"/><use transform="matrix(0.06172839506172839,0,0,0.06172839506172839,98.64197530864197,0)" xlink:href="#I"/><use transform="matrix(0.06172839506172839,0,0,0.06172839506172839,110.98765432098766,0)" xlink:href="#N"/><use transform="matrix(0.06172839506172839,0,0,0.06172839506172839,115.8641975308642,0)" xlink:href="#G"/><use transform="matrix(0.06172839506172839,0,0,0.06172839506172839,120.74074074074075,0)" xlink:href="#M"/><use transform="matrix(0.06172839506172839,0,0,0.06172839506172839,133.08641975308643,0)" xlink:href="#I"/><use transform="matrix(0.06172839506172839,0,0,0.06172839506172839,145.4320987654321,0)" xlink:href="#M"/><use transform="matrix(0.06172839506172839,0,0,0.06172839506172839,157.77777777777777,0)" xlink:href="#E"/></g><path fill="#282c33" d="M33-154v-36h34v36H33zM33 0v-36h34V0H33" id="O"/><use transform="matrix(0.06172839506172839,0,0,0.06172839506172839,0,0)" xlink:href="#O" id="d"/><path fill="#282c33" d="M185-189c-5-48-123-54-124 2 14 75 158 14 163 119 3 78-121 87-175 55-17-10-28-26-33-46l33-7c5 56 141 63 141-1 0-78-155-14-162-118-5-82 145-84 179-34 5 7 8 16 11 25" id="P"/><path fill="#282c33" d="M114-163C36-179 61-72 57 0H25l-1-190h30c1 12-1 29 2 39 6-27 23-49 58-41v29" id="Q"/><path fill="#282c33" d="M177-190C167-65 218 103 67 71c-23-6-38-20-44-43l32-5c15 47 100 32 89-28v-30C133-14 115 1 83 1 29 1 15-40 15-95c0-56 16-97 71-98 29-1 48 16 59 35 1-10 0-23 2-32h30zM94-22c36 0 50-32 50-73 0-42-14-75-50-75-39 0-46 34-46 75s6 73 46 73" id="R"/><g id="e"><use transform="matrix(0.06172839506172839,0,0,0.06172839506172839,0,0)" xlink:href="#P"/><use transform="matrix(0.06172839506172839,0,0,0.06172839506172839,14.814814814814813,0)" xlink:href="#F"/><use transform="matrix(0.06172839506172839,0,0,0.06172839506172839,20.98765432098765,0)" xlink:href="#Q"/><use transform="matrix(0.06172839506172839,0,0,0.06172839506172839,28.33333333333333,0)" xlink:href="#G"/><use transform="matrix(0.06172839506172839,0,0,0.06172839506172839,33.20987654320987,0)" xlink:href="#K"/><use transform="matrix(0.06172839506172839,0,0,0.06172839506172839,45.55555555555555,0)" xlink:href="#R"/></g><g id="f"><use transform="matrix(0.06172839506172839,0,0,0.06172839506172839,0,0)" xlink:href="#C"/><use transform="matrix(0.06172839506172839,0,0,0.06172839506172839,18.456790123456788,0)" xlink:href="#B"/><use transform="matrix(0.06172839506172839,0,0,0.06172839506172839,30.80246913580247,0)" xlink:href="#C"/><use transform="matrix(0.06172839506172839,0,0,0.06172839506172839,49.25925925925925,0)" xlink:href="#E"/><use transform="matrix(0.06172839506172839,0,0,0.06172839506172839,61.60493827160493,0)" xlink:href="#K"/><use transform="matrix(0.06172839506172839,0,0,0.06172839506172839,73.9506172839506,0)" xlink:href="#F"/><use transform="matrix(0.06172839506172839,0,0,0.06172839506172839,80.12345679012344,0)" xlink:href="#B"/></g><path fill="#282c33" d="M30-248c118-7 216 8 213 122C240-48 200 0 122 0H30v-248zM63-27c89 8 146-16 146-99s-60-101-146-95v194" id="S"/><path fill="#282c33" d="M127-220V0H93v-220H8v-28h204v28h-85" id="T"/><g id="g"><use transform="matrix(0.06172839506172839,0,0,0.06172839506172839,0,0)" xlink:href="#S"/><use transform="matrix(0.06172839506172839,0,0,0.06172839506172839,15.987654320987653,0)" xlink:href="#I"/><use transform="matrix(0.06172839506172839,0,0,0.06172839506172839,28.333333333333332,0)" xlink:href="#F"/><use transform="matrix(0.06172839506172839,0,0,0.06172839506172839,34.50617283950617,0)" xlink:href="#E"/><use transform="matrix(0.06172839506172839,0,0,0.06172839506172839,46.85185185185185,0)" xlink:href="#T"/><use transform="matrix(0.06172839506172839,0,0,0.06172839506172839,59.5679012345679,0)" xlink:href="#G"/><use transform="matrix(0.06172839506172839,0,0,0.06172839506172839,64.44444444444444,0)" xlink:href="#C"/><use transform="matrix(0.06172839506172839,0,0,0.06172839506172839,82.90123456790123,0)" xlink:href="#E"/></g><path fill="#282c33" d="M30 0v-248h33v221h125V0H30" id="U"/><g id="h"><use transform="matrix(0.06172839506172839,0,0,0.06172839506172839,0,0)" xlink:href="#U"/><use transform="matrix(0.06172839506172839,0,0,0.06172839506172839,12.345679012345679,0)" xlink:href="#B"/><use transform="matrix(0.06172839506172839,0,0,0.06172839506172839,24.691358024691358,0)" xlink:href="#H"/><use transform="matrix(0.06172839506172839,0,0,0.06172839506172839,35.80246913580247,0)" xlink:href="#I"/><use transform="matrix(0.06172839506172839,0,0,0.06172839506172839,48.148148148148145,0)" xlink:href="#N"/></g><path fill="#282c33" d="M84 4C-5 8 30-112 23-190h32v120c0 31 7 50 39 49 72-2 45-101 50-169h31l1 190h-30c-1-10 1-25-2-33-11 22-28 36-60 37" id="V"/><g id="i"><use transform="matrix(0.06172839506172839,0,0,0.06172839506172839,0,0)" xlink:href="#N"/><use transform="matrix(0.06172839506172839,0,0,0.06172839506172839,4.876543209876543,0)" xlink:href="#B"/><use transform="matrix(0.06172839506172839,0,0,0.06172839506172839,17.22222222222222,0)" xlink:href="#R"/><use transform="matrix(0.06172839506172839,0,0,0.06172839506172839,29.5679012345679,0)" xlink:href="#Q"/><use transform="matrix(0.06172839506172839,0,0,0.06172839506172839,36.913580246913575,0)" xlink:href="#I"/><use transform="matrix(0.06172839506172839,0,0,0.06172839506172839,49.25925925925925,0)" xlink:href="#M"/><use transform="matrix(0.06172839506172839,0,0,0.06172839506172839,61.60493827160493,0)" xlink:href="#B"/><use transform="matrix(0.06172839506172839,0,0,0.06172839506172839,73.9506172839506,0)" xlink:href="#V"/><use transform="matrix(0.06172839506172839,0,0,0.06172839506172839,86.29629629629629,0)" xlink:href="#Q"/><use transform="matrix(0.06172839506172839,0,0,0.06172839506172839,93.64197530864197,0)" xlink:href="#B"/></g><g id="j"><use transform="matrix(0.06172839506172839,0,0,0.06172839506172839,0,0)" xlink:href="#K"/><use transform="matrix(0.06172839506172839,0,0,0.06172839506172839,12.345679012345679,0)" xlink:href="#V"/><use transform="matrix(0.06172839506172839,0,0,0.06172839506172839,24.691358024691358,0)" xlink:href="#C"/><use transform="matrix(0.06172839506172839,0,0,0.06172839506172839,43.148148148148145,0)" xlink:href="#E"/><use transform="matrix(0.06172839506172839,0,0,0.06172839506172839,55.49382716049382,0)" xlink:href="#Q"/><use transform="matrix(0.06172839506172839,0,0,0.06172839506172839,62.8395061728395,0)" xlink:href="#B"/></g><path fill="#282c33" d="M33 0v-248h34V0H33" id="W"/><g id="k"><use transform="matrix(0.06172839506172839,0,0,0.06172839506172839,0,0)" xlink:href="#W"/><use transform="matrix(0.06172839506172839,0,0,0.06172839506172839,6.172839506172839,0)" xlink:href="#K"/><use transform="matrix(0.06172839506172839,0,0,0.06172839506172839,18.51851851851852,0)" xlink:href="#F"/><use transform="matrix(0.06172839506172839,0,0,0.06172839506172839,24.691358024691358,0)" xlink:href="#E"/><use transform="matrix(0.06172839506172839,0,0,0.06172839506172839,37.03703703703704,0)" xlink:href="#R"/><use transform="matrix(0.06172839506172839,0,0,0.06172839506172839,49.382716049382715,0)" xlink:href="#E"/><use transform="matrix(0.06172839506172839,0,0,0.06172839506172839,61.72839506172839,0)" xlink:href="#Q"/></g><g id="l"><use transform="matrix(0.06172839506172839,0,0,0.06172839506172839,0,0)" xlink:href="#H"/><use transform="matrix(0.06172839506172839,0,0,0.06172839506172839,11.11111111111111,0)" xlink:href="#B"/><use transform="matrix(0.06172839506172839,0,0,0.06172839506172839,23.45679012345679,0)" xlink:href="#C"/><use transform="matrix(0.06172839506172839,0,0,0.06172839506172839,41.91358024691358,0)" xlink:href="#D"/><use transform="matrix(0.06172839506172839,0,0,0.06172839506172839,54.25925925925926,0)" xlink:href="#N"/><use transform="matrix(0.06172839506172839,0,0,0.06172839506172839,59.135802469135804,0)" xlink:href="#E"/><use transform="matrix(0.06172839506172839,0,0,0.06172839506172839,71.48148148148148,0)" xlink:href="#C"/><use transform="matrix(0.06172839506172839,0,0,0.06172839506172839,89.93827160493827,0)" xlink:href="#E"/><use transform="matrix(0.06172839506172839,0,0,0.06172839506172839,102.28395061728395,0)" xlink:href="#K"/><use transform="matrix(0.06172839506172839,0,0,0.06172839506172839,114.62962962962963,0)" xlink:href="#F"/><use transform="matrix(0.06172839506172839,0,0,0.06172839506172839,120.80246913580247,0)" xlink:href="#B"/></g><path fill="#282c33" d="M115-194c53 0 69 39 70 98 0 66-23 100-70 100C84 3 66-7 56-30L54 0H23l1-261h32v101c10-23 28-34 59-34zm-8 174c40 0 45-34 45-75 0-40-5-75-45-74-42 0-51 32-51 76 0 43 10 73 51 73" id="X"/><g id="m"><use transform="matrix(0.06172839506172839,0,0,0.06172839506172839,0,0)" xlink:href="#X"/><use transform="matrix(0.06172839506172839,0,0,0.06172839506172839,12.345679012345679,0)" xlink:href="#I"/><use transform="matrix(0.06172839506172839,0,0,0.06172839506172839,24.691358024691358,0)" xlink:href="#G"/><use transform="matrix(0.06172839506172839,0,0,0.06172839506172839,29.5679012345679,0)" xlink:href="#Q"/><use transform="matrix(0.06172839506172839,0,0,0.06172839506172839,36.913580246913575,0)" xlink:href="#Q"/><use transform="matrix(0.06172839506172839,0,0,0.06172839506172839,44.25925925925925,0)" xlink:href="#B"/></g><g id="n"><use transform="matrix(0.06172839506172839,0,0,0.06172839506172839,0,0)" xlink:href="#H"/><use transform="matrix(0.06172839506172839,0,0,0.06172839506172839,11.11111111111111,0)" xlink:href="#G"/><use transform="matrix(0.06172839506172839,0,0,0.06172839506172839,15.987654320987653,0)" xlink:href="#M"/><use transform="matrix(0.06172839506172839,0,0,0.06172839506172839,28.333333333333332,0)" xlink:href="#I"/><use transform="matrix(0.06172839506172839,0,0,0.06172839506172839,40.67901234567901,0)" xlink:href="#M"/><use transform="matrix(0.06172839506172839,0,0,0.06172839506172839,53.02469135802469,0)" xlink:href="#E"/></g><path fill="#282c33" d="M135-143c-3-34-86-38-87 0 15 53 115 12 119 90S17 21 10-45l28-5c4 36 97 45 98 0-10-56-113-15-118-90-4-57 82-63 122-42 12 7 21 19 24 35" id="Y"/><g id="o"><use transform="matrix(0.06172839506172839,0,0,0.06172839506172839,0,0)" xlink:href="#E"/><use transform="matrix(0.06172839506172839,0,0,0.06172839506172839,12.345679012345679,0)" xlink:href="#Y"/><use transform="matrix(0.06172839506172839,0,0,0.06172839506172839,23.45679012345679,0)" xlink:href="#F"/><use transform="matrix(0.06172839506172839,0,0,0.06172839506172839,29.62962962962963,0)" xlink:href="#I"/><use transform="matrix(0.06172839506172839,0,0,0.06172839506172839,41.97530864197531,0)" xlink:href="#M"/><use transform="matrix(0.06172839506172839,0,0,0.06172839506172839,54.32098765432099,0)" xlink:href="#B"/></g><g id="p"><use transform="matrix(0.06172839506172839,0,0,0.06172839506172839,0,0)" xlink:href="#H"/><use transform="matrix(0.06172839506172839,0,0,0.06172839506172839,11.11111111111111,0)" xlink:href="#E"/><use transform="matrix(0.06172839506172839,0,0,0.06172839506172839,23.45679012345679,0)" xlink:href="#D"/></g><path fill="#282c33" d="M145-31C134-9 116 4 85 4 32 4 16-35 15-94c0-59 17-99 70-100 32-1 48 14 60 33 0-11-1-24 2-32h30l-1 268h-32zM93-21c41 0 51-33 51-76s-8-73-50-73c-40 0-46 35-46 75s5 74 45 74" id="Z"/><g id="q"><use transform="matrix(0.06172839506172839,0,0,0.06172839506172839,0,0)" xlink:href="#Z"/><use transform="matrix(0.06172839506172839,0,0,0.06172839506172839,12.345679012345679,0)" xlink:href="#V"/><use transform="matrix(0.06172839506172839,0,0,0.06172839506172839,24.691358024691358,0)" xlink:href="#I"/><use transform="matrix(0.06172839506172839,0,0,0.06172839506172839,37.03703703703704,0)" xlink:href="#M"/><use transform="matrix(0.06172839506172839,0,0,0.06172839506172839,49.382716049382715,0)" xlink:href="#Q"/><use transform="matrix(0.06172839506172839,0,0,0.06172839506172839,56.72839506172839,0)" xlink:href="#I"/></g><g id="r"><use transform="matrix(0.06172839506172839,0,0,0.06172839506172839,0,0)" xlink:href="#P"/><use transform="matrix(0.06172839506172839,0,0,0.06172839506172839,14.814814814814813,0)" xlink:href="#F"/><use transform="matrix(0.06172839506172839,0,0,0.06172839506172839,20.98765432098765,0)" xlink:href="#Q"/><use transform="matrix(0.06172839506172839,0,0,0.06172839506172839,28.33333333333333,0)" xlink:href="#G"/><use transform="matrix(0.06172839506172839,0,0,0.06172839506172839,33.20987654320987,0)" xlink:href="#K"/><use transform="matrix(0.06172839506172839,0,0,0.06172839506172839,45.55555555555555,0)" xlink:href="#R"/></g><path fill="#282c33" d="M233-177c-1 41-23 64-60 70L243 0h-38l-65-103H63V0H30v-248c88 3 205-21 203 71zM63-129c60-2 137 13 137-47 0-61-80-42-137-45v92" id="aa"/><g id="s"><use transform="matrix(0.06172839506172839,0,0,0.06172839506172839,0,0)" xlink:href="#aa"/><use transform="matrix(0.06172839506172839,0,0,0.06172839506172839,15.987654320987653,0)" xlink:href="#E"/><use transform="matrix(0.06172839506172839,0,0,0.06172839506172839,28.333333333333332,0)" xlink:href="#Y"/><use transform="matrix(0.06172839506172839,0,0,0.06172839506172839,39.44444444444444,0)" xlink:href="#V"/><use transform="matrix(0.06172839506172839,0,0,0.06172839506172839,51.79012345679012,0)" xlink:href="#N"/><use transform="matrix(0.06172839506172839,0,0,0.06172839506172839,56.666666666666664,0)" xlink:href="#F"/><use transform="matrix(0.06172839506172839,0,0,0.06172839506172839,62.839506172839506,0)" xlink:href="#I"/><use transform="matrix(0.06172839506172839,0,0,0.06172839506172839,75.18518518518519,0)" xlink:href="#M"/><use transform="matrix(0.06172839506172839,0,0,0.06172839506172839,87.53086419753087,0)" xlink:href="#B"/></g><path fill="#282c33" d="M30-248c87 1 191-15 191 75 0 78-77 80-158 76V0H30v-248zm33 125c57 0 124 11 124-50 0-59-68-47-124-48v98" id="ab"/><g id="t"><use transform="matrix(0.06172839506172839,0,0,0.06172839506172839,0,0)" xlink:href="#ab"/><use transform="matrix(0.06172839506172839,0,0,0.06172839506172839,14.814814814814813,0)" xlink:href="#B"/><use transform="matrix(0.06172839506172839,0,0,0.06172839506172839,27.160493827160494,0)" xlink:href="#Y"/><use transform="matrix(0.06172839506172839,0,0,0.06172839506172839,38.27160493827161,0)" xlink:href="#G"/><use transform="matrix(0.06172839506172839,0,0,0.06172839506172839,43.14814814814815,0)" xlink:href="#H"/><use transform="matrix(0.06172839506172839,0,0,0.06172839506172839,54.25925925925927,0)" xlink:href="#I"/><use transform="matrix(0.06172839506172839,0,0,0.06172839506172839,66.60493827160495,0)" xlink:href="#B"/></g><g id="u"><use transform="matrix(0.06172839506172839,0,0,0.06172839506172839,0,0)" xlink:href="#D"/><use transform="matrix(0.06172839506172839,0,0,0.06172839506172839,12.345679012345679,0)" xlink:href="#B"/><use transform="matrix(0.06172839506172839,0,0,0.06172839506172839,24.691358024691358,0)" xlink:href="#Y"/><use transform="matrix(0.06172839506172839,0,0,0.06172839506172839,35.80246913580247,0)" xlink:href="#G"/><use transform="matrix(0.06172839506172839,0,0,0.06172839506172839,40.67901234567901,0)" xlink:href="#H"/><use transform="matrix(0.06172839506172839,0,0,0.06172839506172839,51.79012345679013,0)" xlink:href="#I"/><use transform="matrix(0.06172839506172839,0,0,0.06172839506172839,64.13580246913581,0)" xlink:href="#B"/></g><g id="v"><use transform="matrix(0.06172839506172839,0,0,0.06172839506172839,0,0)" xlink:href="#W"/><use transform="matrix(0.06172839506172839,0,0,0.06172839506172839,6.172839506172839,0)" xlink:href="#K"/><use transform="matrix(0.06172839506172839,0,0,0.06172839506172839,18.51851851851852,0)" xlink:href="#F"/><use transform="matrix(0.06172839506172839,0,0,0.06172839506172839,24.691358024691358,0)" xlink:href="#E"/><use transform="matrix(0.06172839506172839,0,0,0.06172839506172839,37.03703703703704,0)" xlink:href="#R"/><use transform="matrix(0.06172839506172839,0,0,0.06172839506172839,49.382716049382715,0)" xlink:href="#E"/><use transform="matrix(0.06172839506172839,0,0,0.06172839506172839,61.72839506172839,0)" xlink:href="#Q"/></g><path fill="#282c33" d="M205 0l-28-72H64L36 0H1l101-248h38L239 0h-34zm-38-99l-47-123c-12 45-31 82-46 123h93" id="ac"/><g id="w"><use transform="matrix(0.06172839506172839,0,0,0.06172839506172839,0,0)" xlink:href="#ac"/><use transform="matrix(0.06172839506172839,0,0,0.06172839506172839,14.814814814814813,0)" xlink:href="#F"/><use transform="matrix(0.06172839506172839,0,0,0.06172839506172839,20.98765432098765,0)" xlink:href="#N"/><use transform="matrix(0.06172839506172839,0,0,0.06172839506172839,25.864197530864196,0)" xlink:href="#E"/><use transform="matrix(0.06172839506172839,0,0,0.06172839506172839,38.20987654320987,0)" xlink:href="#F"/><use transform="matrix(0.06172839506172839,0,0,0.06172839506172839,44.382716049382715,0)" xlink:href="#I"/></g><g id="x"><use transform="matrix(0.06172839506172839,0,0,0.06172839506172839,0,0)" xlink:href="#K"/><use transform="matrix(0.06172839506172839,0,0,0.06172839506172839,12.345679012345679,0)" xlink:href="#B"/><use transform="matrix(0.06172839506172839,0,0,0.06172839506172839,24.691358024691358,0)" xlink:href="#C"/><use transform="matrix(0.06172839506172839,0,0,0.06172839506172839,43.148148148148145,0)" xlink:href="#E"/></g><g id="y"><use transform="matrix(0.06172839506172839,0,0,0.06172839506172839,0,0)" xlink:href="#D"/><use transform="matrix(0.06172839506172839,0,0,0.06172839506172839,12.345679012345679,0)" xlink:href="#I"/><use transform="matrix(0.06172839506172839,0,0,0.06172839506172839,24.691358024691358,0)" xlink:href="#G"/><use transform="matrix(0.06172839506172839,0,0,0.06172839506172839,29.5679012345679,0)" xlink:href="#Y"/><use transform="matrix(0.06172839506172839,0,0,0.06172839506172839,40.67901234567901,0)" xlink:href="#O"/></g><g id="z"><use transform="matrix(0.06172839506172839,0,0,0.06172839506172839,0,0)" xlink:href="#E"/><use transform="matrix(0.06172839506172839,0,0,0.06172839506172839,12.345679012345679,0)" xlink:href="#K"/><use transform="matrix(0.06172839506172839,0,0,0.06172839506172839,24.691358024691358,0)" xlink:href="#V"/><use transform="matrix(0.06172839506172839,0,0,0.06172839506172839,37.03703703703704,0)" xlink:href="#C"/></g></defs></g></svg>