<svg xmlns="http://www.w3.org/2000/svg" xmlns:xlink="http://www.w3.org/1999/xlink" xmlns:lucid="lucid" width="1645" height="1042"><g transform="translate(-1097 -208)" lucid:page-tab-id="0_0"><path d="M500-500h2500v2000H500z" fill="#f2f3f5"/><path d="M1160 349.77a12 12 0 0 1 12-12h1496a12 12 0 0 1 12 12v826.36a12 12 0 0 1-12 12H1172a12 12 0 0 1-12-12z" stroke="#dfe3e8" stroke-width="4" fill="#fff"/><path d="M1160 276.44a12 12 0 0 1 12-12h587.05a12 12 0 0 1 12 12v37.33a12 12 0 0 1-12 12H1172a12 12 0 0 1-12-12z" fill="#dfe3e8"/><use xlink:href="#a" transform="matrix(1,0,0,1,1172,280.0368819433953) translate(0 25.22222222222222)"/><use xlink:href="#b" transform="matrix(1,0,0,1,1172,280.0368819433953) translate(120.81481481481482 25.22222222222222)"/><use xlink:href="#c" transform="matrix(1,0,0,1,1172,280.0368819433953) translate(164.0246913580247 25.22222222222222)"/><use xlink:href="#d" transform="matrix(1,0,0,1,1172,280.0368819433953) translate(272.9135802469136 25.22222222222222)"/><use xlink:href="#e" transform="matrix(1,0,0,1,1172,280.0368819433953) translate(331.67901234567904 25.22222222222222)"/><use xlink:href="#f" transform="matrix(1,0,0,1,1172,280.0368819433953) translate(497.3456790123457 25.22222222222222)"/><path d="M2469.98 836.04a6 6 0 0 1 6-6h181.65a6 6 0 0 1 6 6v72.68a6 6 0 0 1-6 6h-181.65a6 6 0 0 1-6-6z" fill="none"/><use xlink:href="#g" transform="matrix(1,0,0,1,2474.9762799877235,835.0396919439894) translate(52.29012345679012 43.72222222222222)"/><path d="M1120 1072.12a6 6 0 0 1 6-6h421.73a6 6 0 0 1 6 6v110a6 6 0 0 1-6 6H1126a6 6 0 0 1-6-6z" fill="none"/><use xlink:href="#h" transform="matrix(1,0,0,1,1125,1071.1244338744905) translate(60.24691358024691 44.05555555555555)"/><use xlink:href="#i" transform="matrix(1,0,0,1,1125,1071.1244338744905) translate(124.11111111111111 44.05555555555555)"/><use xlink:href="#j" transform="matrix(1,0,0,1,1125,1071.1244338744905) translate(241.2962962962963 44.05555555555555)"/><use xlink:href="#k" transform="matrix(1,0,0,1,1125,1071.1244338744905) translate(117.9753086419753 81.38888888888889)"/><path d="M2469.98 580.97a6 6 0 0 1 6-6h166.38a6 6 0 0 1 6 6V833.3a6 6 0 0 1-6 6h-166.38a6 6 0 0 1-6-6z" fill-opacity="0"/><path d="M2582.57 626.34c0 12.84-10.4 23.25-23.26 23.25-12.83 0-23.25-10.42-23.25-23.26 0-12.85 10.42-23.26 23.26-23.26 12.86 0 23.27 10.4 23.27 23.26zM2533.55 662.68a6 6 0 0 1 6-6h39.53a6 6 0 0 1 6 6v67.57a6 6 0 0 1-6 6h-39.53a6 6 0 0 1-6-6z" fill="#9391ff"/><path d="M2575.7 673.15a6 6 0 0 1 0-8.5l3.5-3.5a6 6 0 0 1 8.48 0l30.32 30.32a6 6 0 0 1 0 8.5l-3.5 3.5a6 6 0 0 1-8.5 0zM2530.66 660.92a6 6 0 0 1 8.48 0l3.5 3.5a6 6 0 0 1 0 8.5l-30.3 30.3a6 6 0 0 1-8.5 0l-3.5-3.5a6 6 0 0 1 0-8.48zM2533.55 736.12a6 6 0 0 1 6-6h4.95a6 6 0 0 1 6 6v64.38a6 6 0 0 1-6 6h-4.95a6 6 0 0 1-6-6zM2568.12 736.12a6 6 0 0 1 6-6h4.96a6 6 0 0 1 6 6v64.38a6 6 0 0 1-6 6h-4.96a6 6 0 0 1-6-6z" fill="#9391ff"/><path d="M1255.32 820.97a6 6 0 0 1 6-6h170.75a6 6 0 0 1 6 6v258.8a6 6 0 0 1-6 6h-170.75a6 6 0 0 1-6-6z" fill-opacity="0"/><path d="M1370.66 867.6c0 13.15-10.66 23.82-23.82 23.82S1323 880.75 1323 867.6c0-13.17 10.68-23.84 23.84-23.84s23.82 10.67 23.82 23.83zM1320.44 904.67a6 6 0 0 1 6-6h40.8a6 6 0 0 1 6 6v69.53a6 6 0 0 1-6 6h-40.8a6 6 0 0 1-6-6z" fill="#9391ff"/><path d="M1363.5 915.44a6 6 0 0 1 0-8.48l3.8-3.8a6 6 0 0 1 8.5 0l31.27 31.27a6 6 0 0 1 0 8.48l-3.8 3.8a6 6 0 0 1-8.5 0zM1317.6 902.92a6 6 0 0 1 8.47 0l3.8 3.8a6 6 0 0 1 0 8.48l-31.27 31.27a6 6 0 0 1-8.48 0l-3.8-3.8a6 6 0 0 1 0-8.48zM1320.44 979.9a6 6 0 0 1 6-6h5.38a6 6 0 0 1 6 6v66.26a6 6 0 0 1-6 6h-5.38a6 6 0 0 1-6-6zM1355.86 979.9a6 6 0 0 1 6-6h5.37a6 6 0 0 1 6 6v66.26a6 6 0 0 1-6 6h-5.37a6 6 0 0 1-6-6z" fill="#9391ff"/><path d="M1241.1 602.08a6 6 0 0 1 6-6h160.3a6 6 0 0 1 6 6v35.34a6 6 0 0 1-6 6h-160.3a6 6 0 0 1-6-6z" fill="none"/><use xlink:href="#l" transform="matrix(1,0,0,1,1246.110785964919,601.0781178598459) translate(53.888888888888886 25.22222222222222)"/><path d="M1234.82 343.77a6 6 0 0 1 6-6h170.76a6 6 0 0 1 6 6v258.8a6 6 0 0 1-6 6h-170.76a6 6 0 0 1-6-6z" fill-opacity="0"/><path d="M1350.17 390.4c0 13.16-10.67 23.82-23.83 23.82-13.16 0-23.82-10.66-23.82-23.82s10.66-23.83 23.82-23.83 23.83 10.67 23.83 23.83zM1299.95 427.48a6 6 0 0 1 6-6h40.8a6 6 0 0 1 6 6V497a6 6 0 0 1-6 6h-40.8a6 6 0 0 1-6-6z" fill="#9391ff"/><path d="M1343.02 438.25a6 6 0 0 1 0-8.5l3.8-3.8a6 6 0 0 1 8.48 0l31.27 31.28a6 6 0 0 1 0 8.5l-3.8 3.8a6 6 0 0 1-8.48 0zM1297.1 425.72a6 6 0 0 1 8.48 0l3.8 3.8a6 6 0 0 1 0 8.5l-31.27 31.26a6 6 0 0 1-8.48 0l-3.8-3.8a6 6 0 0 1 0-8.5zM1299.95 502.72a6 6 0 0 1 6-6h5.37a6 6 0 0 1 6 6v66.25a6 6 0 0 1-6 6h-5.37a6 6 0 0 1-6-6zM1335.36 502.72a6 6 0 0 1 6-6h5.38a6 6 0 0 1 6 6v66.25a6 6 0 0 1-6 6h-5.38a6 6 0 0 1-6-6z" fill="#9391ff"/><path d="M2468.48 707.14h-262.91" stroke="#3a414a" stroke-width="3" fill="none"/><path d="M2469.98 708.6h-1.54v-2.94h1.54zM2205.6 708.6h-1.58v-.1l.05-1.34v-.23l-.05-1.27h1.6z" stroke="#3a414a" stroke-width=".05" fill="#3a414a"/><path d="M1374.73 1013.04h325.86" stroke="#3a414a" stroke-width="3" fill="none"/><path d="M1374.77 1014.5h-1.54v-2.94h1.54zM1702.12 1011.7l-.03 1.4.02 1.34v.07h-1.57v-2.94h1.58z" stroke="#3a414a" stroke-width=".05" fill="#3a414a"/><path d="M1372.16 867.6h328.43" stroke="#3a414a" stroke-width="3" fill="none"/><path d="M1372.2 869.07h-1.7l.16-1.48-.07-1.48h1.6zM1702.12 866.24l-.03 1.4.02 1.36v.07h-1.57v-2.95h1.58z" stroke="#3a414a" stroke-width=".05" fill="#3a414a"/><path d="M1419.08 473.18h139.73a1.03 1.03 0 0 0 1.03-1.03 1.03 1.03 0 0 1 1.03-1.03h139.73" stroke="#3a414a" stroke-width="3" fill="none"/><path d="M1419.1 474.65h-1.52v-2.95h1.53zM1702.12 469.77l-.03 1.4.02 1.36v.07h-1.57v-2.95h1.58z" stroke="#3a414a" stroke-width=".05" fill="#3a414a"/><path d="M1913.8 471.33l3 .06m12.03.3l6 .36m11.98.84l6 .64m11.93 1.32l5.97.72m11.93 1.44l5.97.73m11.94 1.36l6 .4m12 .64l6 .1m12.03.25l3 .04" stroke="#3a414a" stroke-width="3" stroke-linejoin="round" fill="none"/><path d="M1905.64 471.18l13.06-7.4-.3 15.28z" stroke="#3a414a" stroke-width="3" fill="#3a414a"/><path d="M2041.1 479.1l-.03 1.47.03 1.48h-1.57v-2.95z" stroke="#3a414a" stroke-width=".05" fill="#3a414a"/><use xlink:href="#m" transform="matrix(1,0,0,1,1920.4209344106503,444.43243564566285) translate(0 14.222222222222223)"/><path d="M2202.57 707.14c0 22.1-35.82 40-80 40s-80-17.9-80-40 35.82-40 80-40 80 17.9 80 40z" stroke="#3a414a" stroke-width="3" fill="#fff"/><use xlink:href="#n" transform="matrix(1,0,0,1,2050.5712588455253,671.1374903140439) translate(18.63277777777778 26.810000000000002)"/><use xlink:href="#o" transform="matrix(1,0,0,1,2050.5712588455253,671.1374903140439) translate(38.81888888888889 58.010000000000005)"/><path d="M2225.33 480.57c0 32.8-40.9 59.4-91.38 59.4-50.47 0-91.38-26.6-91.38-59.4s40.9-59.4 91.38-59.4c50.47 0 91.38 26.6 91.38 59.4z" stroke="#3a414a" stroke-width="3" fill="#fff"/><g><use xlink:href="#p" transform="matrix(1,0,0,1,2051.7090668853098,427.1154914557604) translate(6.093888888888907 44.20625)"/><use xlink:href="#q" transform="matrix(1,0,0,1,2051.7090668853098,427.1154914557604) translate(130.02722222222224 44.20625)"/><use xlink:href="#r" transform="matrix(1,0,0,1,2051.7090668853098,427.1154914557604) translate(26.24388888888889 75.40625)"/></g><path d="M1901.2 867.6c0 27.28-44.24 49.4-98.8 49.4-54.58 0-98.8-22.12-98.8-49.4 0-27.3 44.22-49.4 98.8-49.4 54.56 0 98.8 22.1 98.8 49.4z" stroke="#3a414a" stroke-width="3" fill="#fff"/><g><use xlink:href="#s" transform="matrix(1,0,0,1,1713.4675904905546,823.1297297205653) translate(32.05777777777778 34.70625)"/><use xlink:href="#t" transform="matrix(1,0,0,1,1713.4675904905546,823.1297297205653) translate(19.780000000000022 65.90625)"/></g><path d="M1901.2 471.12c0 27.3-44.24 49.4-98.8 49.4-54.58 0-98.8-22.1-98.8-49.4 0-27.28 44.22-49.4 98.8-49.4 54.56 0 98.8 22.12 98.8 49.4z" stroke="#3a414a" stroke-width="3" fill="#fff"/><g><use xlink:href="#u" transform="matrix(1,0,0,1,1713.4675904905546,426.65957377902225) translate(21.946666666666665 34.70625)"/><use xlink:href="#q" transform="matrix(1,0,0,1,1713.4675904905546,426.65957377902225) translate(127.17444444444443 34.70625)"/><use xlink:href="#v" transform="matrix(1,0,0,1,1713.4675904905546,426.65957377902225) translate(24.07722222222224 65.90625)"/></g><path d="M1901.2 1013.04c0 27.28-44.24 49.4-98.8 49.4-54.58 0-98.8-22.12-98.8-49.4 0-27.3 44.22-49.4 98.8-49.4 54.56 0 98.8 22.1 98.8 49.4z" stroke="#3a414a" stroke-width="3" fill="#fff"/><g><use xlink:href="#w" transform="matrix(1,0,0,1,1713.4675904905546,968.5764814182527) translate(17.5411111111111 34.70625)"/><use xlink:href="#q" transform="matrix(1,0,0,1,1713.4675904905546,968.5764814182527) translate(131.57999999999998 34.70625)"/><use xlink:href="#x" transform="matrix(1,0,0,1,1713.4675904905546,968.5764814182527) translate(55.855 65.90625)"/></g><defs><path d="M185-189c-5-48-123-54-124 2 14 75 158 14 163 119 3 78-121 87-175 55-17-10-28-26-33-46l33-7c5 56 141 63 141-1 0-78-155-14-162-118-5-82 145-84 179-34 5 7 8 16 11 25" id="y"/><path d="M24-231v-30h32v30H24zM24 0v-190h32V0H24" id="z"/><path d="M135-143c-3-34-86-38-87 0 15 53 115 12 119 90S17 21 10-45l28-5c4 36 97 45 98 0-10-56-113-15-118-90-4-57 82-63 122-42 12 7 21 19 24 35" id="A"/><path d="M59-47c-2 24 18 29 38 22v24C64 9 27 4 27-40v-127H5v-23h24l9-43h21v43h35v23H59v120" id="B"/><path d="M100-194c63 0 86 42 84 106H49c0 40 14 67 53 68 26 1 43-12 49-29l28 8c-11 28-37 45-77 45C44 4 14-33 15-96c1-61 26-98 85-98zm52 81c6-60-76-77-97-28-3 7-6 17-6 28h103" id="C"/><path d="M210-169c-67 3-38 105-44 169h-31v-121c0-29-5-50-35-48C34-165 62-65 56 0H25l-1-190h30c1 10-1 24 2 32 10-44 99-50 107 0 11-21 27-35 58-36 85-2 47 119 55 194h-31v-121c0-29-5-49-35-48" id="D"/><path d="M141-36C126-15 110 5 73 4 37 3 15-17 15-53c-1-64 63-63 125-63 3-35-9-54-41-54-24 1-41 7-42 31l-33-3c5-37 33-52 76-52 45 0 72 20 72 64v82c-1 20 7 32 28 27v20c-31 9-61-2-59-35zM48-53c0 20 12 33 32 33 41-3 63-29 60-74-43 2-92-5-92 41" id="E"/><g id="a"><use transform="matrix(0.08641975308641976,0,0,0.08641975308641976,0,0)" xlink:href="#y"/><use transform="matrix(0.08641975308641976,0,0,0.08641975308641976,20.740740740740744,0)" xlink:href="#z"/><use transform="matrix(0.08641975308641976,0,0,0.08641975308641976,27.567901234567906,0)" xlink:href="#A"/><use transform="matrix(0.08641975308641976,0,0,0.08641975308641976,43.12345679012346,0)" xlink:href="#B"/><use transform="matrix(0.08641975308641976,0,0,0.08641975308641976,51.76543209876544,0)" xlink:href="#C"/><use transform="matrix(0.08641975308641976,0,0,0.08641975308641976,69.0493827160494,0)" xlink:href="#D"/><use transform="matrix(0.08641975308641976,0,0,0.08641975308641976,94.8888888888889,0)" xlink:href="#E"/></g><path d="M85-194c31 0 48 13 60 33l-1-100h32l1 261h-30c-2-10 0-23-3-31C134-8 116 4 85 4 32 4 16-35 15-94c0-66 23-100 70-100zm9 24c-40 0-46 34-46 75 0 40 6 74 45 74 42 0 51-32 51-76 0-42-9-74-50-73" id="F"/><g id="b"><use transform="matrix(0.08641975308641976,0,0,0.08641975308641976,0,0)" xlink:href="#F"/><use transform="matrix(0.08641975308641976,0,0,0.08641975308641976,17.283950617283953,0)" xlink:href="#C"/></g><path d="M143 4C61 4 22-44 18-125c-5-107 100-154 193-111 17 8 29 25 37 43l-32 9c-13-25-37-40-76-40-61 0-88 39-88 99 0 61 29 100 91 101 35 0 62-11 79-27v-45h-74v-28h105v86C228-13 192 4 143 4" id="G"/><path d="M141-36C126-15 110 5 73 4 37 3 15-17 15-53c-1-64 63-63 125-63 3-35-9-54-41-54-24 1-41 7-42 31l-33-3c5-37 33-52 76-52 45 0 72 20 72 64v82c-1 20 7 32 28 27v20c-31 9-61-2-59-35zM48-53c0 20 12 33 32 33 41-3 63-29 60-74-43 2-92-5-92 41zm117-205c-3 23-9 48-36 47-26-1-65-44-74 0H39c4-23 8-48 36-47s64 44 74 0h16" id="H"/><path d="M100-194c62-1 85 37 85 99 1 63-27 99-86 99S16-35 15-95c0-66 28-99 85-99zM99-20c44 1 53-31 53-75 0-43-8-75-51-75s-53 32-53 75 10 74 51 75" id="I"/><g id="c"><use transform="matrix(0.08641975308641976,0,0,0.08641975308641976,0,0)" xlink:href="#G"/><use transform="matrix(0.08641975308641976,0,0,0.08641975308641976,24.19753086419753,0)" xlink:href="#C"/><use transform="matrix(0.08641975308641976,0,0,0.08641975308641976,41.48148148148148,0)" xlink:href="#A"/><use transform="matrix(0.08641975308641976,0,0,0.08641975308641976,57.03703703703703,0)" xlink:href="#B"/><use transform="matrix(0.08641975308641976,0,0,0.08641975308641976,65.67901234567901,0)" xlink:href="#H"/><use transform="matrix(0.08641975308641976,0,0,0.08641975308641976,82.96296296296296,0)" xlink:href="#I"/></g><g id="d"><use transform="matrix(0.08641975308641976,0,0,0.08641975308641976,0,0)" xlink:href="#F"/><use transform="matrix(0.08641975308641976,0,0,0.08641975308641976,17.283950617283953,0)" xlink:href="#E"/><use transform="matrix(0.08641975308641976,0,0,0.08641975308641976,34.567901234567906,0)" xlink:href="#A"/></g><path d="M140-251c81 0 123 46 123 126C263-46 219 4 140 4 59 4 17-45 17-125s42-126 123-126zm0 227c63 0 89-41 89-101s-29-99-89-99c-61 0-89 39-89 99S79-25 140-24" id="J"/><path d="M24 0v-261h32V0H24" id="K"/><path d="M115-194c55 1 70 41 70 98S169 2 115 4C84 4 66-9 55-30l1 105H24l-1-265h31l2 30c10-21 28-34 59-34zm-8 174c40 0 45-34 45-75s-6-73-45-74c-42 0-51 32-51 76 0 43 10 73 51 73" id="L"/><path d="M34 0v-190h32V0H34zM24-211c8-23 27-35 38-54h36v5l-58 49H24" id="M"/><g id="e"><use transform="matrix(0.08641975308641976,0,0,0.08641975308641976,0,0)" xlink:href="#J"/><use transform="matrix(0.08641975308641976,0,0,0.08641975308641976,24.19753086419753,0)" xlink:href="#K"/><use transform="matrix(0.08641975308641976,0,0,0.08641975308641976,31.024691358024693,0)" xlink:href="#z"/><use transform="matrix(0.08641975308641976,0,0,0.08641975308641976,37.851851851851855,0)" xlink:href="#D"/><use transform="matrix(0.08641975308641976,0,0,0.08641975308641976,63.69135802469137,0)" xlink:href="#L"/><use transform="matrix(0.08641975308641976,0,0,0.08641975308641976,80.97530864197532,0)" xlink:href="#M"/><use transform="matrix(0.08641975308641976,0,0,0.08641975308641976,89.61728395061729,0)" xlink:href="#E"/><use transform="matrix(0.08641975308641976,0,0,0.08641975308641976,106.90123456790124,0)" xlink:href="#F"/><use transform="matrix(0.08641975308641976,0,0,0.08641975308641976,124.1851851851852,0)" xlink:href="#E"/><use transform="matrix(0.08641975308641976,0,0,0.08641975308641976,141.46913580246914,0)" xlink:href="#A"/></g><path d="M87 75C49 33 22-17 22-94c0-76 28-126 65-167h31c-38 41-64 92-64 168S80 34 118 75H87" id="N"/><path d="M33-261c38 41 65 92 65 168S71 34 33 75H2C39 34 66-17 66-93S39-220 2-261h31" id="O"/><g id="f"><use transform="matrix(0.08641975308641976,0,0,0.08641975308641976,0,0)" xlink:href="#N"/><use transform="matrix(0.08641975308641976,0,0,0.08641975308641976,10.283950617283951,0)" xlink:href="#y"/><use transform="matrix(0.08641975308641976,0,0,0.08641975308641976,31.024691358024693,0)" xlink:href="#G"/><use transform="matrix(0.08641975308641976,0,0,0.08641975308641976,55.22222222222223,0)" xlink:href="#J"/><use transform="matrix(0.08641975308641976,0,0,0.08641975308641976,79.41975308641976,0)" xlink:href="#O"/></g><path d="M205 0l-28-72H64L36 0H1l101-248h38L239 0h-34zm-38-99l-47-123c-12 45-31 82-46 123h93" id="P"/><g id="g"><use transform="matrix(0.08641975308641976,0,0,0.08641975308641976,0,0)" xlink:href="#P"/><use transform="matrix(0.08641975308641976,0,0,0.08641975308641976,20.740740740740744,0)" xlink:href="#B"/><use transform="matrix(0.08641975308641976,0,0,0.08641975308641976,29.382716049382726,0)" xlink:href="#K"/><use transform="matrix(0.08641975308641976,0,0,0.08641975308641976,36.20987654320989,0)" xlink:href="#C"/><use transform="matrix(0.08641975308641976,0,0,0.08641975308641976,53.49382716049383,0)" xlink:href="#B"/><use transform="matrix(0.08641975308641976,0,0,0.08641975308641976,62.13580246913581,0)" xlink:href="#E"/></g><path d="M212-179c-10-28-35-45-73-45-59 0-87 40-87 99 0 60 29 101 89 101 43 0 62-24 78-52l27 14C228-24 195 4 139 4 59 4 22-46 18-125c-6-104 99-153 187-111 19 9 31 26 39 46" id="Q"/><path d="M33 0v-248h34V0H33" id="R"/><g id="h"><use transform="matrix(0.08641975308641976,0,0,0.08641975308641976,0,0)" xlink:href="#Q"/><use transform="matrix(0.08641975308641976,0,0,0.08641975308641976,22.38271604938272,0)" xlink:href="#J"/><use transform="matrix(0.08641975308641976,0,0,0.08641975308641976,46.580246913580254,0)" xlink:href="#R"/></g><path d="M100-194c63 0 86 42 84 106H49c0 40 14 67 53 68 26 1 43-12 49-29l28 8c-11 28-37 45-77 45C44 4 14-33 15-96c1-61 26-98 85-98zm52 81c6-60-76-77-97-28-3 7-6 17-6 28h103zm-32-149c12 18 30 30 39 51-31 2-38-20-57-30-20 10-27 32-59 30 9-22 29-33 41-51h36" id="S"/><g id="i"><use transform="matrix(0.08641975308641976,0,0,0.08641975308641976,0,0)" xlink:href="#N"/><use transform="matrix(0.08641975308641976,0,0,0.08641975308641976,10.283950617283951,0)" xlink:href="#Q"/><use transform="matrix(0.08641975308641976,0,0,0.08641975308641976,32.66666666666667,0)" xlink:href="#I"/><use transform="matrix(0.08641975308641976,0,0,0.08641975308641976,49.95061728395062,0)" xlink:href="#D"/><use transform="matrix(0.08641975308641976,0,0,0.08641975308641976,75.79012345679013,0)" xlink:href="#z"/><use transform="matrix(0.08641975308641976,0,0,0.08641975308641976,82.61728395061729,0)" xlink:href="#B"/><use transform="matrix(0.08641975308641976,0,0,0.08641975308641976,91.25925925925927,0)" xlink:href="#S"/></g><path d="M96-169c-40 0-48 33-48 73s9 75 48 75c24 0 41-14 43-38l32 2c-6 37-31 61-74 61-59 0-76-41-82-99-10-93 101-131 147-64 4 7 5 14 7 22l-32 3c-4-21-16-35-41-35" id="T"/><g id="j"><use transform="matrix(0.08641975308641976,0,0,0.08641975308641976,0,0)" xlink:href="#J"/><use transform="matrix(0.08641975308641976,0,0,0.08641975308641976,24.19753086419753,0)" xlink:href="#K"/><use transform="matrix(0.08641975308641976,0,0,0.08641975308641976,31.024691358024693,0)" xlink:href="#M"/><use transform="matrix(0.08641975308641976,0,0,0.08641975308641976,39.66666666666667,0)" xlink:href="#D"/><use transform="matrix(0.08641975308641976,0,0,0.08641975308641976,65.50617283950618,0)" xlink:href="#L"/><use transform="matrix(0.08641975308641976,0,0,0.08641975308641976,82.79012345679013,0)" xlink:href="#z"/><use transform="matrix(0.08641975308641976,0,0,0.08641975308641976,89.61728395061729,0)" xlink:href="#T"/><use transform="matrix(0.08641975308641976,0,0,0.08641975308641976,105.17283950617285,0)" xlink:href="#I"/></g><path d="M117-194c89-4 53 116 60 194h-32v-121c0-31-8-49-39-48C34-167 62-67 57 0H25l-1-190h30c1 10-1 24 2 32 11-22 29-35 61-36" id="U"/><path d="M114-163C36-179 61-72 57 0H25l-1-190h30c1 12-1 29 2 39 6-27 23-49 58-41v29" id="V"/><g id="k"><use transform="matrix(0.08641975308641976,0,0,0.08641975308641976,0,0)" xlink:href="#R"/><use transform="matrix(0.08641975308641976,0,0,0.08641975308641976,8.641975308641976,0)" xlink:href="#U"/><use transform="matrix(0.08641975308641976,0,0,0.08641975308641976,25.925925925925927,0)" xlink:href="#B"/><use transform="matrix(0.08641975308641976,0,0,0.08641975308641976,34.567901234567906,0)" xlink:href="#C"/><use transform="matrix(0.08641975308641976,0,0,0.08641975308641976,51.851851851851855,0)" xlink:href="#V"/><use transform="matrix(0.08641975308641976,0,0,0.08641975308641976,62.13580246913581,0)" xlink:href="#U"/><use transform="matrix(0.08641975308641976,0,0,0.08641975308641976,79.41975308641976,0)" xlink:href="#E"/><use transform="matrix(0.08641975308641976,0,0,0.08641975308641976,96.70370370370371,0)" xlink:href="#T"/><use transform="matrix(0.08641975308641976,0,0,0.08641975308641976,112.25925925925927,0)" xlink:href="#z"/><use transform="matrix(0.08641975308641976,0,0,0.08641975308641976,119.08641975308643,0)" xlink:href="#I"/><use transform="matrix(0.08641975308641976,0,0,0.08641975308641976,136.37037037037038,0)" xlink:href="#U"/><use transform="matrix(0.08641975308641976,0,0,0.08641975308641976,153.65432098765433,0)" xlink:href="#E"/><use transform="matrix(0.08641975308641976,0,0,0.08641975308641976,170.93827160493828,0)" xlink:href="#K"/><use transform="matrix(0.08641975308641976,0,0,0.08641975308641976,177.76543209876544,0)" xlink:href="#O"/></g><path d="M153-248C145-148 188 4 80 4 36 3 13-21 6-62l32-5c4 25 16 42 43 43 27 0 39-20 39-49v-147H72v-28h81" id="W"/><path d="M84 4C-5 8 30-112 23-190h32v120c0 31 7 50 39 49 72-2 45-101 50-169h31l1 190h-30c-1-10 1-25-2-33-11 22-28 36-60 37" id="X"/><path d="M9 0v-24l116-142H16v-24h144v24L44-24h123V0H9" id="Y"/><g id="l"><use transform="matrix(0.08641975308641976,0,0,0.08641975308641976,0,0)" xlink:href="#W"/><use transform="matrix(0.08641975308641976,0,0,0.08641975308641976,15.555555555555557,0)" xlink:href="#X"/><use transform="matrix(0.08641975308641976,0,0,0.08641975308641976,32.839506172839506,0)" xlink:href="#z"/><use transform="matrix(0.08641975308641976,0,0,0.08641975308641976,39.66666666666667,0)" xlink:href="#Y"/></g><path fill="#333" d="M15-91v-56l181-69v40L49-119l147 57v40" id="Z"/><path fill="#333" d="M185-48c-13 30-37 53-82 52C43 2 14-33 14-96s30-98 90-98c62 0 83 45 84 108H66c0 31 8 55 39 56 18 0 30-7 34-22zm-45-69c5-46-57-63-70-21-2 6-4 13-4 21h74" id="aa"/><path fill="#333" d="M144 0l-44-69L55 0H2l70-98-66-92h53l41 62 40-62h54l-67 91 71 99h-54" id="ab"/><path fill="#333" d="M115-3C79 11 28 4 28-45v-112H4v-33h27l15-45h31v45h36v33H77v99c-1 23 16 31 38 25v30" id="ac"/><path fill="#333" d="M135-194c87-1 58 113 63 194h-50c-7-57 23-157-34-157-59 0-34 97-39 157H25l-1-190h47c2 12-1 28 3 38 12-26 28-41 61-42" id="ad"/><path fill="#333" d="M88-194c31-1 46 15 58 34l-1-101h50l1 261h-48c-2-10 0-23-3-31C134-8 116 4 84 4 32 4 16-41 15-95c0-56 19-97 73-99zm17 164c33 0 40-30 41-66 1-37-9-64-41-64s-38 30-39 65c0 43 13 65 39 65" id="ae"/><path fill="#333" d="M15-22v-40l146-57-146-57v-40l181 69v56" id="af"/><g id="m"><use transform="matrix(0.04938271604938272,0,0,0.04938271604938272,0,0)" xlink:href="#Z"/><use transform="matrix(0.04938271604938272,0,0,0.04938271604938272,10.370370370370372,0)" xlink:href="#Z"/><use transform="matrix(0.04938271604938272,0,0,0.04938271604938272,20.740740740740744,0)" xlink:href="#aa"/><use transform="matrix(0.04938271604938272,0,0,0.04938271604938272,30.617283950617285,0)" xlink:href="#ab"/><use transform="matrix(0.04938271604938272,0,0,0.04938271604938272,40.49382716049384,0)" xlink:href="#ac"/><use transform="matrix(0.04938271604938272,0,0,0.04938271604938272,46.37037037037038,0)" xlink:href="#aa"/><use transform="matrix(0.04938271604938272,0,0,0.04938271604938272,56.24691358024693,0)" xlink:href="#ad"/><use transform="matrix(0.04938271604938272,0,0,0.04938271604938272,67.06172839506173,0)" xlink:href="#ae"/><use transform="matrix(0.04938271604938272,0,0,0.04938271604938272,77.87654320987654,0)" xlink:href="#af"/><use transform="matrix(0.04938271604938272,0,0,0.04938271604938272,88.24691358024691,0)" xlink:href="#af"/></g><path d="M108 0H70L1-190h34L89-25l56-165h34" id="ag"/><g id="n"><use transform="matrix(0.07222222222222222,0,0,0.07222222222222222,0,0)" xlink:href="#R"/><use transform="matrix(0.07222222222222222,0,0,0.07222222222222222,7.222222222222221,0)" xlink:href="#U"/><use transform="matrix(0.07222222222222222,0,0,0.07222222222222222,21.666666666666664,0)" xlink:href="#A"/><use transform="matrix(0.07222222222222222,0,0,0.07222222222222222,34.666666666666664,0)" xlink:href="#T"/><use transform="matrix(0.07222222222222222,0,0,0.07222222222222222,47.666666666666664,0)" xlink:href="#V"/><use transform="matrix(0.07222222222222222,0,0,0.07222222222222222,56.261111111111106,0)" xlink:href="#C"/><use transform="matrix(0.07222222222222222,0,0,0.07222222222222222,70.70555555555555,0)" xlink:href="#ag"/><use transform="matrix(0.07222222222222222,0,0,0.07222222222222222,83.70555555555555,0)" xlink:href="#C"/><use transform="matrix(0.07222222222222222,0,0,0.07222222222222222,98.14999999999999,0)" xlink:href="#V"/></g><g id="o"><use transform="matrix(0.07222222222222222,0,0,0.07222222222222222,0,0)" xlink:href="#P"/><use transform="matrix(0.07222222222222222,0,0,0.07222222222222222,17.333333333333332,0)" xlink:href="#B"/><use transform="matrix(0.07222222222222222,0,0,0.07222222222222222,24.555555555555554,0)" xlink:href="#K"/><use transform="matrix(0.07222222222222222,0,0,0.07222222222222222,30.26111111111111,0)" xlink:href="#C"/><use transform="matrix(0.07222222222222222,0,0,0.07222222222222222,44.70555555555555,0)" xlink:href="#B"/><use transform="matrix(0.07222222222222222,0,0,0.07222222222222222,51.92777777777777,0)" xlink:href="#E"/></g><path d="M233-177c-1 41-23 64-60 70L243 0h-38l-65-103H63V0H30v-248c88 3 205-21 203 71zM63-129c60-2 137 13 137-47 0-61-80-42-137-45v92" id="ah"/><path d="M100-194c62-1 85 37 85 99 1 63-27 99-86 99S16-35 15-95c0-66 28-99 85-99zM99-20c44 1 53-31 53-75 0-43-8-75-51-75s-53 32-53 75 10 74 51 75zM76-211c8-23 27-35 38-54h36v5l-58 49H76" id="ai"/><g id="p"><use transform="matrix(0.07222222222222222,0,0,0.07222222222222222,0,0)" xlink:href="#ah"/><use transform="matrix(0.07222222222222222,0,0,0.07222222222222222,18.705555555555552,0)" xlink:href="#C"/><use transform="matrix(0.07222222222222222,0,0,0.07222222222222222,33.14999999999999,0)" xlink:href="#K"/><use transform="matrix(0.07222222222222222,0,0,0.07222222222222222,38.85555555555555,0)" xlink:href="#E"/><use transform="matrix(0.07222222222222222,0,0,0.07222222222222222,53.29999999999999,0)" xlink:href="#B"/><use transform="matrix(0.07222222222222222,0,0,0.07222222222222222,60.52222222222221,0)" xlink:href="#ai"/><use transform="matrix(0.07222222222222222,0,0,0.07222222222222222,74.96666666666665,0)" xlink:href="#V"/><use transform="matrix(0.07222222222222222,0,0,0.07222222222222222,83.5611111111111,0)" xlink:href="#z"/><use transform="matrix(0.07222222222222222,0,0,0.07222222222222222,89.26666666666665,0)" xlink:href="#I"/><use transform="matrix(0.07222222222222222,0,0,0.07222222222222222,103.7111111111111,0)" xlink:href="#A"/></g><g id="q"><use transform="matrix(0.07222222222222222,0,0,0.07222222222222222,0,0)" xlink:href="#F"/><use transform="matrix(0.07222222222222222,0,0,0.07222222222222222,14.444444444444443,0)" xlink:href="#C"/></g><path d="M106-169C34-169 62-67 57 0H25v-261h32l-1 103c12-21 28-36 61-36 89 0 53 116 60 194h-32v-121c2-32-8-49-39-48" id="aj"/><g id="r"><use transform="matrix(0.07222222222222222,0,0,0.07222222222222222,0,0)" xlink:href="#D"/><use transform="matrix(0.07222222222222222,0,0,0.07222222222222222,21.59444444444444,0)" xlink:href="#C"/><use transform="matrix(0.07222222222222222,0,0,0.07222222222222222,36.038888888888884,0)" xlink:href="#F"/><use transform="matrix(0.07222222222222222,0,0,0.07222222222222222,50.48333333333333,0)" xlink:href="#E"/><use transform="matrix(0.07222222222222222,0,0,0.07222222222222222,64.92777777777778,0)" xlink:href="#K"/><use transform="matrix(0.07222222222222222,0,0,0.07222222222222222,70.63333333333333,0)" xlink:href="#aj"/><use transform="matrix(0.07222222222222222,0,0,0.07222222222222222,85.07777777777777,0)" xlink:href="#E"/><use transform="matrix(0.07222222222222222,0,0,0.07222222222222222,99.52222222222221,0)" xlink:href="#A"/></g><g id="s"><use transform="matrix(0.07222222222222222,0,0,0.07222222222222222,0,0)" xlink:href="#G"/><use transform="matrix(0.07222222222222222,0,0,0.07222222222222222,20.22222222222222,0)" xlink:href="#C"/><use transform="matrix(0.07222222222222222,0,0,0.07222222222222222,34.666666666666664,0)" xlink:href="#V"/><use transform="matrix(0.07222222222222222,0,0,0.07222222222222222,43.261111111111106,0)" xlink:href="#C"/><use transform="matrix(0.07222222222222222,0,0,0.07222222222222222,57.70555555555555,0)" xlink:href="#U"/><use transform="matrix(0.07222222222222222,0,0,0.07222222222222222,72.14999999999999,0)" xlink:href="#T"/><use transform="matrix(0.07222222222222222,0,0,0.07222222222222222,85.14999999999999,0)" xlink:href="#z"/><use transform="matrix(0.07222222222222222,0,0,0.07222222222222222,90.85555555555554,0)" xlink:href="#E"/><use transform="matrix(0.07222222222222222,0,0,0.07222222222222222,105.3,0)" xlink:href="#V"/></g><path d="M96-169c-40 0-48 33-48 73s9 75 48 75c24 0 41-14 43-38l32 2c-6 37-31 61-74 61-59 0-76-41-82-99-10-93 101-131 147-64 4 7 5 14 7 22l-32 3c-4-21-16-35-41-35zm3 187c19-1 33 8 33 26 0 31-30 33-64 32V58c18 2 39 4 41-13 1-15-18-13-34-13L87 0h19" id="ak"/><g id="t"><use transform="matrix(0.07222222222222222,0,0,0.07222222222222222,0,0)" xlink:href="#Q"/><use transform="matrix(0.07222222222222222,0,0,0.07222222222222222,18.705555555555552,0)" xlink:href="#I"/><use transform="matrix(0.07222222222222222,0,0,0.07222222222222222,33.14999999999999,0)" xlink:href="#D"/><use transform="matrix(0.07222222222222222,0,0,0.07222222222222222,54.74444444444443,0)" xlink:href="#L"/><use transform="matrix(0.07222222222222222,0,0,0.07222222222222222,69.18888888888887,0)" xlink:href="#C"/><use transform="matrix(0.07222222222222222,0,0,0.07222222222222222,83.63333333333331,0)" xlink:href="#B"/><use transform="matrix(0.07222222222222222,0,0,0.07222222222222222,90.85555555555553,0)" xlink:href="#z"/><use transform="matrix(0.07222222222222222,0,0,0.07222222222222222,96.56111111111107,0)" xlink:href="#ak"/><use transform="matrix(0.07222222222222222,0,0,0.07222222222222222,109.56111111111107,0)" xlink:href="#H"/><use transform="matrix(0.07222222222222222,0,0,0.07222222222222222,124.00555555555552,0)" xlink:href="#I"/></g><g id="u"><use transform="matrix(0.07222222222222222,0,0,0.07222222222222222,0,0)" xlink:href="#Q"/><use transform="matrix(0.07222222222222222,0,0,0.07222222222222222,18.705555555555552,0)" xlink:href="#I"/><use transform="matrix(0.07222222222222222,0,0,0.07222222222222222,33.14999999999999,0)" xlink:href="#U"/><use transform="matrix(0.07222222222222222,0,0,0.07222222222222222,47.594444444444434,0)" xlink:href="#B"/><use transform="matrix(0.07222222222222222,0,0,0.07222222222222222,54.816666666666656,0)" xlink:href="#V"/><use transform="matrix(0.07222222222222222,0,0,0.07222222222222222,63.4111111111111,0)" xlink:href="#I"/><use transform="matrix(0.07222222222222222,0,0,0.07222222222222222,77.85555555555555,0)" xlink:href="#K"/><use transform="matrix(0.07222222222222222,0,0,0.07222222222222222,83.56111111111109,0)" xlink:href="#C"/></g><g id="v"><use transform="matrix(0.07222222222222222,0,0,0.07222222222222222,0,0)" xlink:href="#ah"/><use transform="matrix(0.07222222222222222,0,0,0.07222222222222222,18.705555555555552,0)" xlink:href="#C"/><use transform="matrix(0.07222222222222222,0,0,0.07222222222222222,33.14999999999999,0)" xlink:href="#A"/><use transform="matrix(0.07222222222222222,0,0,0.07222222222222222,46.149999999999984,0)" xlink:href="#X"/><use transform="matrix(0.07222222222222222,0,0,0.07222222222222222,60.59444444444443,0)" xlink:href="#K"/><use transform="matrix(0.07222222222222222,0,0,0.07222222222222222,66.29999999999998,0)" xlink:href="#B"/><use transform="matrix(0.07222222222222222,0,0,0.07222222222222222,73.52222222222221,0)" xlink:href="#E"/><use transform="matrix(0.07222222222222222,0,0,0.07222222222222222,87.96666666666665,0)" xlink:href="#F"/><use transform="matrix(0.07222222222222222,0,0,0.07222222222222222,102.4111111111111,0)" xlink:href="#I"/><use transform="matrix(0.07222222222222222,0,0,0.07222222222222222,116.85555555555554,0)" xlink:href="#A"/></g><g id="w"><use transform="matrix(0.07222222222222222,0,0,0.07222222222222222,0,0)" xlink:href="#P"/><use transform="matrix(0.07222222222222222,0,0,0.07222222222222222,17.333333333333332,0)" xlink:href="#K"/><use transform="matrix(0.07222222222222222,0,0,0.07222222222222222,23.038888888888888,0)" xlink:href="#I"/><use transform="matrix(0.07222222222222222,0,0,0.07222222222222222,37.48333333333334,0)" xlink:href="#T"/><use transform="matrix(0.07222222222222222,0,0,0.07222222222222222,50.483333333333334,0)" xlink:href="#E"/><use transform="matrix(0.07222222222222222,0,0,0.07222222222222222,64.92777777777778,0)" xlink:href="#ak"/><use transform="matrix(0.07222222222222222,0,0,0.07222222222222222,77.92777777777778,0)" xlink:href="#H"/><use transform="matrix(0.07222222222222222,0,0,0.07222222222222222,92.37222222222222,0)" xlink:href="#I"/></g><g id="x"><use transform="matrix(0.07222222222222222,0,0,0.07222222222222222,0,0)" xlink:href="#K"/><use transform="matrix(0.07222222222222222,0,0,0.07222222222222222,5.705555555555555,0)" xlink:href="#I"/><use transform="matrix(0.07222222222222222,0,0,0.07222222222222222,20.15,0)" xlink:href="#T"/><use transform="matrix(0.07222222222222222,0,0,0.07222222222222222,33.15,0)" xlink:href="#E"/><use transform="matrix(0.07222222222222222,0,0,0.07222222222222222,47.59444444444444,0)" xlink:href="#z"/><use transform="matrix(0.07222222222222222,0,0,0.07222222222222222,53.3,0)" xlink:href="#A"/></g></defs></g></svg>